<svg width="64" height="64" viewBox="0 0 64 64" fill="none" xmlns="http://www.w3.org/2000/svg">
  <path d="M22 45H47C52 45 56 41 56 36C56 31 52.5 27 47.5 27C46 19 40 14 32 14C24.5 14 18.5 18.5 17 25.5C12 26.5 8 30.5 8 36C8 41 12 45 17 45H22Z" stroke="#0E0E10" stroke-width="2" stroke-linejoin="round"/>
  <path d="M25 31H39" stroke="#9A9A92" stroke-width="2" stroke-linecap="round"/>
  <path d="M25 37H34" stroke="#9A9A92" stroke-width="2" stroke-linecap="round"/>
  <path d="M17 52C27 40 38 39 49 22" stroke="url(#g)" stroke-width="2.5" stroke-linecap="round"/>
  <circle cx="17" cy="52" r="2.5" fill="#3D5AFE"/>
  <circle cx="49" cy="22" r="2.5" fill="#7C4DFF"/>
  <defs><linearGradient id="g" x1="17" y1="52" x2="49" y2="22" gradientUnits="userSpaceOnUse"><stop stop-color="#3D5AFE"/><stop offset="1" stop-color="#7C4DFF"/></linearGradient></defs>
</svg>
